<?xml version="1.0" standalone="yes"?>
<svg xmlns="http://www.w3.org/2000/svg" xmlns:xlink="http://www.w3.org/1999/xlink" xmlns:svg="http://www.w3.org/2000/svg" xmlns:dc="http://purl.org/dc/elements/1.1/" xmlns:cc="http://web.resource.org/cc/" xmlns:rdf="http://www.w3.org/1999/02/22-rdf-syntax-ns#" width="273" height="185">
<path style="fill:#ffffff; stroke:none;" d="M0 0L0 185L273 185L273 0L0 0z"/>
<path style="fill:#c5ab98; stroke:none;" d="M106.667 13.3333L107.333 13.6667L106.667 13.3333z"/>
<path style="fill:#613915; stroke:none;" d="M92 46C88.664 46 82.5069 44.8315 79.7384 47.0278C76.2174 49.821 78.2514 57.7037 72 57.7037C65.3994 57.7037 68.0103 48.8433 63.5671 46.6034C48.6073 39.0616 42.7832 57.7577 38.4877 66.9105C36.7178 70.6816 33.0681 73.0821 31.3673 77.0008C30.093 79.9368 30.566 83.9026 28.3966 86.3627C24.9293 90.2945 18.9289 92.3671 15.0147 96.0903C4.01333 106.555 -1.07775 122.061 1.61574 137C4.05415 150.524 13.7636 164.976 27 170.005C37.7574 174.093 54.5485 171 66 171L154 171C165.603 171 186.569 175.045 197 169.821C210.23 163.196 215.548 143.421 216.83 130C218.403 113.541 215.016 95.1406 202.96 83.0394C196.405 76.4601 188.326 75.1509 181.275 70.0656C174.361 65.0795 169.057 52.1767 168 44C175.582 48.7844 184.418 52.189 192.985 47.5579C206.03 40.5057 199.721 21.9984 188.999 16.4028C179.306 11.3439 165.438 12.0565 157.001 19.2137C153.365 22.2977 149.269 30.7037 144.025 30.7037C137.934 30.7037 131.929 18.6998 126 15.919C105.897 6.48955 77.8107 23.4148 92 46z"/>
<path style="fill:#ae9883; stroke:none;" d="M116.667 13.3333L117.333 13.6667L116.667 13.3333z"/>
<path style="fill:#c8bfb3; stroke:none;" d="M168 13L168 14L171 14L168 13z"/>
<path style="fill:#9f8e6f; stroke:none;" d="M178.667 13.3333L179.333 13.6667L178.667 13.3333z"/>
<path style="fill:#ae9883; stroke:none;" d="M94 19L95 20L94 19M131 19L132 20L131 19z"/>
<path style="fill:#9f8e6f; stroke:none;" d="M132 20L133 21L132 20z"/>
<path style="fill:#b4a496; stroke:none;" d="M155 20L156 21L155 20M92 21L93 22L92 21z"/>
<path style="fill:#8a5e3b; stroke:none;" d="M129 44L140 42L139 39L135 40C131.739 29.4928 124.227 22.1265 113 21.1736C104.98 20.4929 93.4512 26.1667 96.5147 35.956C100.002 47.0984 112.852 35.1949 118.961 34.5625C124.026 34.0381 127.297 40.1542 129 44z"/>
<path style="fill:#ae9883; stroke:none;" d="M154 21L155 22L154 21z"/>
<path style="fill:#8a5e3b; stroke:none;" d="M151 42C157.868 41.6807 160.958 35.5871 167.001 34.8418C173.249 34.0712 183.378 45.6975 189.682 38.1065C197.377 28.8417 181.152 20.8425 174 21.1088C160.885 21.5971 155.732 31.4219 151 42z"/>
<path style="fill:#b4a496; stroke:none;" d="M153 22L154 23L153 22z"/>
<path style="fill:#ae9883; stroke:none;" d="M135 23L136 24L135 23M138 27L139 28L138 27z"/>
<path style="fill:#91775d; stroke:none;" d="M148 29L149 30L148 29z"/>
<path style="fill:#c5ab98; stroke:none;" d="M140 30L140 31L148 31L140 30M200 32L200 36L201 36L200 32z"/>
<path style="fill:#8a5e3b; stroke:none;" d="M141 38L141 39L147 39L141 38z"/>
<path style="fill:#ae9883; stroke:none;" d="M88 39L89 40L88 39z"/>
<path style="fill:#d19d6b; stroke:none;" d="M139 39L139 40L148 48L152 41L139 39z"/>
<path style="fill:#b4a496; stroke:none;" d="M135 41L135 42L139 42L135 41z"/>
<path style="fill:#030505; stroke:none;" d="M140 41L141 42L140 41z"/>
<path style="fill:#5b432f; stroke:none;" d="M141 41L146 51L147 51L141 41z"/>
<path style="fill:#22120a; stroke:none;" d="M156.667 41.3333L157.333 41.6667L156.667 41.3333z"/>
<path style="fill:#ffffff; stroke:none;" d="M134 58C133.437 50.4542 139.802 49.3353 141 57C156.083 46.4758 125.271 33.1652 130.43 52.9815C131.038 55.3171 132.272 56.4754 134 58z"/>
<path style="fill:#7b664c; stroke:none;" d="M148 45L151 42L148 45z"/>
<path style="fill:#ffffff; stroke:none;" d="M151 58C151.538 50.8903 156.958 49.8365 159 57C172.572 42.5156 141.375 36.2886 147.873 53.9414C148.559 55.8064 149.594 56.7006 151 58z"/>
<path style="fill:#9f8e6f; stroke:none;" d="M90 43L91 44L90 43z"/>
<path style="fill:#ffffff; stroke:none;" d="M119 44C110.988 49.6985 104.279 50.4549 95 48L95 49L109 72C111.382 63.7469 124.666 52.7793 119 44z"/>
<path style="fill:#c5ab98; stroke:none;" d="M54.6667 45.3333L55.3333 45.6667L54.6667 45.3333z"/>
<path style="fill:#91775d; stroke:none;" d="M56 45L56 46L65 48C66.6075 43.7357 58.6675 45 56 45z"/>
<path style="fill:#89786f; stroke:none;" d="M78 48L79 48L88 46C84.8731 44.1984 78.8947 43.8246 78 48z"/>
<path style="fill:#ae9883; stroke:none;" d="M117 45L118 46L117 45M170 45L171 46L170 45z"/>
<path style="fill:#ffddb9; stroke:none;" d="M92 46L93 47L92 46z"/>
<path style="fill:#030505; stroke:none;" d="M162.333 46.6667L162.667 47.3333L162.333 46.6667z"/>
<path style="fill:#8a5e3b; stroke:none;" d="M163 47C162.29 50.0576 162.331 51.2684 165 53L163 47z"/>
<path style="fill:#ae9883; stroke:none;" d="M174 47L175 48L174 47M193 47L194 48L193 47z"/>
<path style="fill:#b4a496; stroke:none;" d="M48 48L49 49L48 48z"/>
<path style="fill:#c8bfb3; stroke:none;" d="M110.667 48.3333L111.333 48.6667L110.667 48.3333z"/>
<path style="fill:#89786f; stroke:none;" d="M129 48L128 53L130 53L129 48z"/>
<path style="fill:#030505; stroke:none;" d="M145 48L145 53L146 53L145 48z"/>
<path style="fill:#ae9883; stroke:none;" d="M191 48L192 49L191 48z"/>
<path style="fill:#998879; stroke:none;" d="M99.6667 49.3333L100.333 49.6667L99.6667 49.3333z"/>
<path style="fill:#c5ab98; stroke:none;" d="M106.667 49.3333L107.333 49.6667L106.667 49.3333z"/>
<path style="fill:#b4a496; stroke:none;" d="M187.667 49.3333L188.333 49.6667L187.667 49.3333z"/>
<path style="fill:#707176; stroke:none;" d="M135 50L135 51L139 51L135 50z"/>
<path style="fill:#979596; stroke:none;" d="M153 50L153 51L156 51L153 50z"/>
<path style="fill:#9f8e6f; stroke:none;" d="M66.3333 51.6667L66.6667 52.3333L66.3333 51.6667z"/>
<path style="fill:#ae9883; stroke:none;" d="M77.3333 51.6667L77.6667 52.3333L77.3333 51.6667z"/>
<path style="fill:#979596; stroke:none;" d="M134 51L135 52L134 51z"/>
<path style="fill:#030505; stroke:none;" d="M135 60C139.84 59.735 142.809 58.442 145 54L144 54L140 58C142.053 49.5769 133.24 50.343 135 60z"/>
<path style="fill:#c8bfb3; stroke:none;" d="M144.333 51.6667L144.667 52.3333L144.333 51.6667z"/>
<path style="fill:#030505; stroke:none;" d="M152 60L158 60C157.431 49.8364 150.185 49.7324 152 60z"/>
<path style="fill:#998879; stroke:none;" d="M44 52L45 53L44 52z"/>
<path style="fill:#b0a7af; stroke:none;" d="M137.667 52.3333L138.333 52.6667L137.667 52.3333z"/>
<path style="fill:#707176; stroke:none;" d="M140 52L141 53L140 52z"/>
<path style="fill:#d19d6b; stroke:none;" d="M146 52C140.838 61.8607 134.504 60.1164 128 53C125.083 59.1184 119.262 64.4959 117.558 71C114.277 83.526 125.49 92.9875 137 94L128 149C117.899 145.431 115.025 153.222 115 162L171 162C177.669 162 188.138 163.964 193.985 160.258C220.742 143.3 211.263 87.4494 182 79C193.612 95.9991 195.415 107.882 195 128L194 128C192.522 120.155 191.068 108.749 183.815 103.859C180.173 101.404 176.802 103.912 173.209 102.597C170.288 101.528 165.965 95.7109 164.632 93.0039C162.504 88.6842 170.063 82.7857 170.787 78C172.08 69.4514 166.485 63.593 162 57C153.686 61.1781 151.277 58.6116 146 52z"/>
<path style="fill:#707176; stroke:none;" d="M151 52L152 53L151 52z"/>
<path style="fill:#998879; stroke:none;" d="M155 52L156 53L155 52z"/>
<path style="fill:#030505; stroke:none;" d="M162 52L162 55L163 55L162 52z"/>
<path style="fill:#ffc559; stroke:none;" d="M47 66C50.608 66.4998 54.5674 64.6702 57.9846 65.9012C73.3508 71.4371 56.6743 94.5977 48.4568 78.9892C47.4397 77.0574 47.2189 75.1236 47 73C37.6664 76.6466 38.9647 81.869 40 90L59 102L59 104L50 116C31.0163 112.49 31 137.838 31 151C21.7409 141.735 14.2121 131.195 20.8102 118C23.2955 113.03 41.2065 100.447 36.392 95.6073C32.7017 91.8976 25.9598 96.9868 23.0039 99.3789C13.6465 106.951 8.0071 118.938 9.16975 131C10.3548 143.295 17.4942 157.128 30 161.298C37.0114 163.635 46.6631 162 54 162L105 162L94.8117 145.999L82 103L102 90L102 85L105 85C104.357 79.2245 101.219 75.4406 96 73C94.8804 85.7276 84.1454 88.8371 78 77L77 77L72 81L72 92L85 89C83.714 106.067 59.8709 102.896 59 87L64 92L71 92L66 74L78 75C81.9873 64.8675 87.406 67.0583 96 69C95.8243 61.5257 92.9049 54.5995 85 53C82.3856 70.4424 60.6072 70.394 58 53C51.1266 54.3908 48.5237 59.5882 47 66z"/>
<path style="fill:#674b08; stroke:none;" d="M129 53L135 60L134 57L129 53z"/>
<path style="fill:#5b432f; stroke:none;" d="M133 53L133 56L134 56L133 53z"/>
<path style="fill:#ffffff; stroke:none;" d="M137.667 53.3333L138.333 53.6667L137.667 53.3333z"/>
<path style="fill:#5b432f; stroke:none;" d="M144.667 53.3333L145.333 53.6667L144.667 53.3333z"/>
<path style="fill:#5b5b5a; stroke:none;" d="M154 53L155 54L154 53z"/>
<path style="fill:#ffffff; stroke:none;" d="M155 53L156 54L155 53z"/>
<path style="fill:#979596; stroke:none;" d="M156 53L157 54L156 53z"/>
<path style="fill:#707176; stroke:none;" d="M158 53L158 56L159 56L158 53z"/>
<path style="fill:#ae9883; stroke:none;" d="M163.333 53.6667L163.667 54.3333L163.333 53.6667z"/>
<path style="fill:#22120a; stroke:none;" d="M147.333 54.6667L147.667 55.3333L147.333 54.6667z"/>
<path style="fill:#979596; stroke:none;" d="M155 54L156 55L155 54z"/>
<path style="fill:#89786f; stroke:none;" d="M161 54L162 55L161 54z"/>
<path style="fill:#998879; stroke:none;" d="M42 55L43 56L42 55M101 55L102 56L101 55z"/>
<path style="fill:#22120a; stroke:none;" d="M161 55L158 59L161 55z"/>
<path style="fill:#030505; stroke:none;" d="M148 56L149 57L148 56z"/>
<path style="fill:#c8bfb3; stroke:none;" d="M158.333 56.6667L158.667 57.3333L158.333 56.6667z"/>
<path style="fill:#c5ab98; stroke:none;" d="M162 56L163 57L162 56z"/>
<path style="fill:#9f8e6f; stroke:none;" d="M171 56L172 57L171 56z"/>
<path style="fill:#998879; stroke:none;" d="M41 57L42 58L41 57z"/>
<path style="fill:#c8bfb3; stroke:none;" d="M68 57L68 58L76 58L68 57z"/>
<path style="fill:#979596; stroke:none;" d="M102 57L103 58L102 57z"/>
<path style="fill:#89786f; stroke:none;" d="M140.667 57.3333L141.333 57.6667L140.667 57.3333z"/>
<path style="fill:#030505; stroke:none;" d="M149 57L150 58L149 57z"/>
<path style="fill:#7b664c; stroke:none;" d="M151 57L151 60L152 60L151 57z"/>
<path style="fill:#5b5b5a; stroke:none;" d="M157.333 57.6667L157.667 58.3333L157.333 57.6667z"/>
<path style="fill:#030505; stroke:none;" d="M150 58L151 59L150 58z"/>
<path style="fill:#998879; stroke:none;" d="M114 60L115 61L114 60z"/>
<path style="fill:#613915; stroke:none;" d="M141.005 60.5332C129.182 63.4423 138.752 75.1153 147.996 72.5664C160.539 69.108 150.612 58.1691 141.005 60.5332z"/>
<path style="fill:#ae9883; stroke:none;" d="M174 60L175 61L174 60z"/>
<path style="fill:#998879; stroke:none;" d="M39.3333 62.6667L39.6667 63.3333L39.3333 62.6667z"/>
<path style="fill:#91775d; stroke:none;" d="M104.333 62.6667L104.667 63.3333L104.333 62.6667z"/>
<path style="fill:#9a7434; stroke:none;" d="M53 65L49 70L53 65z"/>
<path style="fill:#613915; stroke:none;" d="M54 65L54 66L60 67L54 65z"/>
<path style="fill:#9a7434; stroke:none;" d="M67 65L67 66L75 66L67 65z"/>
<path style="fill:#f1d18b; stroke:none;" d="M47 66L47 72L48 72L49 66L47 66z"/>
<path style="fill:#e6cfb9; stroke:none;" d="M54 66L54 67L58 67L54 66z"/>
<path style="fill:#613915; stroke:none;" d="M84 66L84 67L92 68L84 66z"/>
<path style="fill:#c8bfb3; stroke:none;" d="M105 66L105 69L106 69L105 66z"/>
<path style="fill:#ba8c48; stroke:none;" d="M46 67L48 73L46 67z"/>
<path style="fill:#ffffff; stroke:none;" d="M52 82C53.0403 75.3427 59.6325 74.5446 59 82C76.9103 71.5367 41.6206 58.5608 48.7215 77.9414C49.4133 79.8297 50.5545 80.7243 52 82z"/>
<path style="fill:#835909; stroke:none;" d="M60 67L63 70L60 67z"/>
<path style="fill:#674b08; stroke:none;" d="M82.6667 67.3333L83.3333 67.6667L82.6667 67.3333z"/>
<path style="fill:#ffffff; stroke:none;" d="M83 82C84.7107 76.1245 89.2893 76.1245 91 82C92.6266 80.4071 93.5586 79.3641 93.8519 76.9815C96.1772 58.0852 69.8269 72.6929 83 82z"/>
<path style="fill:#d19d6b; stroke:none;" d="M96 67L94 69L97 73L96 67z"/>
<path style="fill:#613915; stroke:none;" d="M81 68L82 69L81 68z"/>
<path style="fill:#9f8e6f; stroke:none;" d="M91 68L92 69L91 68z"/>
<path style="fill:#030505; stroke:none;" d="M92 68L93 69L92 68z"/>
<path style="fill:#9f8e6f; stroke:none;" d="M37 69L38 70L37 69M80 69L79 73L80 73L82 69L80 69z"/>
<path style="fill:#ae9883; stroke:none;" d="M92 69L93 70L92 69z"/>
<path style="fill:#22120a; stroke:none;" d="M93 69L94 73L95 73L93 69z"/>
<path style="fill:#998879; stroke:none;" d="M109.333 69.6667L109.667 70.3333L109.333 69.6667z"/>
<path style="fill:#89786f; stroke:none;" d="M48.3333 70.6667L48.6667 71.3333L48.3333 70.6667z"/>
<path style="fill:#030505; stroke:none;" d="M63.3333 70.6667L63.6667 71.3333L63.3333 70.6667z"/>
<path style="fill:#c5ab98; stroke:none;" d="M180 70L180 71L183 71L180 70z"/>
<path style="fill:#9a7434; stroke:none;" d="M63.6667 72.3333L64.3333 72.6667L63.6667 72.3333z"/>
<path style="fill:#674b08; stroke:none;" d="M47 73L47 78L48 78L47 73z"/>
<path style="fill:#ae9883; stroke:none;" d="M63 73L63 77L64 77L63 73z"/>
<path style="fill:#613915; stroke:none;" d="M64 73L64 77L65 77L64 73z"/>
<path style="fill:#e75d37; stroke:none;" d="M66 74C66.6759 82.9338 75.2128 82.9381 78 75L66 74z"/>
<path style="fill:#835909; stroke:none;" d="M78 73L80 79L78 73z"/>
<path style="fill:#e6cfb9; stroke:none;" d="M79 73L79 78L80 78L79 73z"/>
<path style="fill:#b0a7af; stroke:none;" d="M94 73L94 78L95 78L94 73z"/>
<path style="fill:#030505; stroke:none;" d="M95 73L95 78L96 78L95 73z"/>
<path style="fill:#8a5e3b; stroke:none;" d="M144 73L144 83L145 83L144 73z"/>
<path style="fill:#030505; stroke:none;" d="M52 84L60 84C58.5491 81.6785 59.8489 79.2857 58.5 77C54.0111 69.3938 52.2542 81.5849 52 84z"/>
<path style="fill:#89786f; stroke:none;" d="M57 75L58 76L57 75z"/>
<path style="fill:#979596; stroke:none;" d="M31 76L32 77L31 76z"/>
<path style="fill:#5b5b5a; stroke:none;" d="M58 76L59 77L58 76z"/>
<path style="fill:#030505; stroke:none;" d="M83 85L91 85L91 84L89 83C91.2148 79.7587 88.4172 73.9384 84.6103 77.6227C82.7902 79.3842 83.1483 82.6936 83 85z"/>
<path style="fill:#ffffff; stroke:none;" d="M56.3333 77.6667L56.6667 78.3333L56.3333 77.6667z"/>
<path style="fill:#b0a7af; stroke:none;" d="M57.3333 77.6667L57.6667 78.3333L57.3333 77.6667z"/>
<path style="fill:#707176; stroke:none;" d="M59 77L59 81L60 81L59 77z"/>
<path style="fill:#030505; stroke:none;" d="M63 77L63 80L64 80L63 77z"/>
<path style="fill:#22120a; stroke:none;" d="M48.3333 78.6667L48.6667 79.3333L48.3333 78.6667z"/>
<path style="fill:#d9d5d1; stroke:none;" d="M87 78L87 80L89 78L87 78z"/>
<path style="fill:#979596; stroke:none;" d="M90 78L91 79L90 78z"/>
<path style="fill:#22120a; stroke:none;" d="M94 78L93 82L94 82L94 78z"/>
<path style="fill:#ae9883; stroke:none;" d="M197 78L198 79L197 78z"/>
<path style="fill:#613915; stroke:none;" d="M62 79L60 84L62 79z"/>
<path style="fill:#030505; stroke:none;" d="M79 79L80 80L79 79z"/>
<path style="fill:#707176; stroke:none;" d="M88 79L89 80L88 79z"/>
<path style="fill:#674b08; stroke:none;" d="M49 80L52 84L49 80z"/>
<path style="fill:#998879; stroke:none;" d="M79.6667 80.3333L80.3333 80.6667L79.6667 80.3333z"/>
<path style="fill:#9f8e6f; stroke:none;" d="M133 80L134 88L135 88L135 81L139 81L133 80z"/>
<path style="fill:#d3c7b7; stroke:none;" d="M151 81L154 88L155 80L151 81z"/>
<path style="fill:#91775d; stroke:none;" d="M29 81L29 87L30 87L29 81z"/>
<path style="fill:#b0a7af; stroke:none;" d="M52.3333 81.6667L52.6667 82.3333L52.3333 81.6667z"/>
<path style="fill:#835909; stroke:none;" d="M71 81L71 92L72 92L71 81z"/>
<path style="fill:#22120a; stroke:none;" d="M80 81L81 82L80 81z"/>
<path style="fill:#979596; stroke:none;" d="M92 81L93 82L92 81z"/>
<path style="fill:#d3c7b7; stroke:none;" d="M135 81L139 89C138.921 85.2802 138.438 82.6916 135 81z"/>
<path style="fill:#9a7434; stroke:none;" d="M37 82L40 86L40 85L37 82z"/>
<path style="fill:#979596; stroke:none;" d="M58.6667 82.3333L59.3333 82.6667L58.6667 82.3333z"/>
<path style="fill:#030505; stroke:none;" d="M81 82L82 83L81 82z"/>
<path style="fill:#ae9883; stroke:none;" d="M82 82L84 84L84 82L82 82z"/>
<path style="fill:#8a5e3b; stroke:none;" d="M89 83L89 84L94 83L89 83z"/>
<path style="fill:#ffffff; stroke:none;" d="M137 83L137 84C142.017 90.3953 144.595 93.1072 153 88L152 82L137 83z"/>
<path style="fill:#22120a; stroke:none;" d="M82 83L83 84L82 83z"/>
<path style="fill:#e6cfb9; stroke:none;" d="M142 83L142 84L146 84L142 83z"/>
<path style="fill:#8a5e3b; stroke:none;" d="M57.6667 84.3333L58.3333 84.6667L57.6667 84.3333z"/>
<path style="fill:#5b432f; stroke:none;" d="M84 85L84 86L89 86L84 85z"/>
<path style="fill:#d19d6b; stroke:none;" d="M102 86L102 90L103 90L102 86z"/>
<path style="fill:#bda36f; stroke:none;" d="M59 87L59 93L60 93L60 89L64 91L59 87z"/>
<path style="fill:#ffffff; stroke:none;" d="M177 87C174.921 92.251 176.58 93.822 182 94L177 87z"/>
<path style="fill:#c8bfb3; stroke:none;" d="M60 89L61 96L62 96L62 89L60 89z"/>
<path style="fill:#ae9883; stroke:none;" d="M80 90L83 91L83 96L84 96L84 89L80 90z"/>
<path style="fill:#91775d; stroke:none;" d="M84 89L84 94L85 94L84 89z"/>
<path style="fill:#ffffff; stroke:none;" d="M112 90C108.229 98.9652 98.4038 99.1418 94.0671 107.424C92.3691 110.667 94.4411 115.689 95.2353 119C97.5487 128.643 99.6925 144.409 110 148C113.005 143.834 118.971 141.939 121.348 137.725C126.85 127.973 126.617 111.94 128 101L114 90L112 90z"/>
<path style="fill:#ae9883; stroke:none;" d="M180 90L181 91L180 90z"/>
<path style="fill:#ffffff; stroke:none;" d="M62 91L62 96C68.1671 101.824 78.8651 104.322 79 93L62 91z"/>
<path style="fill:#d9d5d1; stroke:none;" d="M76 92L76 93L79 93L79 99L83 91L76 92z"/>
<path style="fill:#c5ab98; stroke:none;" d="M68 92L68 93L76 93L68 92z"/>
<path style="fill:#9f8e6f; stroke:none;" d="M210 93L211 94L210 93z"/>
<path style="fill:#b4a496; stroke:none;" d="M211 95L212 96L211 95z"/>
<path style="fill:#c8bfb3; stroke:none;" d="M107.667 97.3333L108.333 97.6667L107.667 97.3333M104.667 98.3333L105.333 98.6667L104.667 98.3333M127 104L127 107L128 107L127 104z"/>
<path style="fill:#9f8e6f; stroke:none;" d="M6 107L7 108L6 107z"/>
<path style="fill:#613915; stroke:none;" d="M244.04 107.672C234.557 110.372 234.99 129.165 245.995 125.381C254.857 122.335 254.984 104.556 244.04 107.672z"/>
<path style="fill:#8a5e3b; stroke:none;" d="M195 108L195 122L196 122L195 108z"/>
<path style="fill:#91775d; stroke:none;" d="M5 109L6 110L5 109z"/>
<path style="fill:#b4a496; stroke:none;" d="M216.333 110.667L216.667 111.333L216.333 110.667M239 110L240 111L239 110z"/>
<path style="fill:#7b664c; stroke:none;" d="M93.3333 111.667L93.6667 112.333L93.3333 111.667z"/>
<path style="fill:#ae9883; stroke:none;" d="M252 111L253 112L252 111z"/>
<path style="fill:#c5ab98; stroke:none;" d="M126 112L126 115L127 115L126 112z"/>
<path style="fill:#9a7434; stroke:none;" d="M43.6667 114.333L44.3333 114.667L43.6667 114.333z"/>
<path style="fill:#d3c7b7; stroke:none;" d="M217 114L217 117L218 117L217 114z"/>
<path style="fill:#613915; stroke:none;" d="M254 131C242.406 125.172 216.074 136.54 226.009 151.907C230.814 159.338 247.768 166.883 254.272 157.891C259.607 150.516 257.098 138.604 254 131C261.995 133.34 273.515 124.713 266.397 116.319C258.27 106.735 252.574 124.995 254 131z"/>
<path style="fill:#c8bfb3; stroke:none;" d="M236 116L236 121L237 121L236 116z"/>
<path style="fill:#91775d; stroke:none;" d="M217 117L217 122L218 122L217 117z"/>
<path style="fill:#c8bfb3; stroke:none;" d="M125.333 118.667L125.667 119.333L125.333 118.667z"/>
<path style="fill:#89786f; stroke:none;" d="M227 118L227 119L232 119L227 118z"/>
<path style="fill:#613915; stroke:none;" d="M226.228 120.029C220.402 123.549 223.644 134.977 230.867 130.968C237.629 127.214 233.81 115.447 226.228 120.029z"/>
<path style="fill:#998879; stroke:none;" d="M1.33333 120.667L1.66667 121.333L1.33333 120.667z"/>
<path style="fill:#9a7434; stroke:none;" d="M9.33333 120.667L9.66667 121.333L9.33333 120.667z"/>
<path style="fill:#ae9883; stroke:none;" d="M217 122L217 127L218 127L217 122z"/>
<path style="fill:#9f8e6f; stroke:none;" d="M223 122L224 123L223 122z"/>
<path style="fill:#835909; stroke:none;" d="M18 123L18 133L19 133L18 123z"/>
<path style="fill:#ae9883; stroke:none;" d="M249 123L250 124L249 123z"/>
<path style="fill:#8a5e3b; stroke:none;" d="M193 124L194 128L195 128L193 124z"/>
<path style="fill:#998879; stroke:none;" d="M222 124L222 128L223 128L222 124z"/>
<path style="fill:#b4a496; stroke:none;" d="M234.333 126.667L234.667 127.333L234.333 126.667z"/>
<path style="fill:#9f8e6f; stroke:none;" d="M238 129L239 130L238 129z"/>
<path style="fill:#998879; stroke:none;" d="M223 130L224 131L223 130z"/>
<path style="fill:#ae9883; stroke:none;" d="M232 130L233 131L232 130M252 130L253 131L252 130z"/>
<path style="fill:#89786f; stroke:none;" d="M224 131L225 132L224 131z"/>
<path style="fill:#9f8e6f; stroke:none;" d="M262 131L263 132L262 131z"/>
<path style="fill:#998879; stroke:none;" d="M216 132L216 135L217 135L216 132z"/>
<path style="fill:#7b664c; stroke:none;" d="M226 132L226 133L229 133L226 132z"/>
<path style="fill:#998879; stroke:none;" d="M256 132L256 133L260 133L256 132z"/>
<path style="fill:#ba8c48; stroke:none;" d="M9 133L9 136L10 136L9 133z"/>
<path style="fill:#b4a496; stroke:none;" d="M122.333 134.667L122.667 135.333L122.333 134.667z"/>
<path style="fill:#613915; stroke:none;" d="M264.059 135.047C257.45 138.361 260.014 151.245 267.891 146.968C274.208 143.537 271.616 131.258 264.059 135.047z"/>
<path style="fill:#ae9883; stroke:none;" d="M270 135L271 136L270 135z"/>
<path style="fill:#c5ab98; stroke:none;" d="M1.33333 136.667L1.66667 137.333L1.33333 136.667z"/>
<path style="fill:#bda36f; stroke:none;" d="M121.333 138.667L121.667 139.333L121.333 138.667z"/>
<path style="fill:#998879; stroke:none;" d="M227 138L228 139L227 138z"/>
<path style="fill:#b4a496; stroke:none;" d="M259 140L259 144L260 144L259 140z"/>
<path style="fill:#ae9883; stroke:none;" d="M114 142L115 143L114 142z"/>
<path style="fill:#91775d; stroke:none;" d="M257 142L257 150L258 150L257 142z"/>
<path style="fill:#9f8e6f; stroke:none;" d="M4 146L5 147L4 146M110 146L111 147L110 146z"/>
<path style="fill:#998879; stroke:none;" d="M5 148L6 149L5 148z"/>
<path style="fill:#9f8e6f; stroke:none;" d="M6 150L7 151L6 150z"/>
<path style="fill:#ae9883; stroke:none;" d="M225 151L226 152L225 151z"/>
<path style="fill:#c5ab98; stroke:none;" d="M256.333 152.667L256.667 153.333L256.333 152.667z"/>
<path style="fill:#9f8e6f; stroke:none;" d="M229 155L230 156L229 155z"/>
<path style="fill:#8a5e3b; stroke:none;" d="M105 158L105 162L106 162L105 158z"/>
<path style="fill:#998879; stroke:none;" d="M234 158L235 159L234 158z"/>
<path style="fill:#9f8e6f; stroke:none;" d="M236 159L237 160L236 159M205 161L206 162L205 161z"/>
<path style="fill:#835909; stroke:none;" d="M115 162L115 163L192 163L168 162L115 162z"/>
<path style="fill:#ae9883; stroke:none;" d="M18 164L19 165L18 164M196 170L197 171L196 170z"/>
<path style="fill:#e6cfb9; stroke:none;" d="M29 171L29 172L112 172L86 171L29 171z"/>
<path style="fill:#c5ab98; stroke:none;" d="M112 171L112 172L196 172L170 171L112 171z"/>
</svg>
